<svg width="4042" height="2001" viewBox="0 0 4042 2001" fill="none" xmlns="http://www.w3.org/2000/svg">
<rect y="1" width="360" height="2000" fill="black"/>
<rect x="48" y="181" width="360" height="2100" transform="rotate(-30 48 181)" fill="black"/>
<rect x="1100" width="360" height="2000" fill="black"/>
<rect x="1540" width="360" height="2000" fill="black"/>
<rect width="360" height="2100" transform="matrix(-0.866025 -0.5 -0.5 0.866025 2949.77 180)" fill="black"/>
<path d="M3140.74 290.195L2153.01 2001H1980.6L1980 2000.65V2000.65L3010.83 215.196L3140.74 290.195Z" fill="black"/>
<path d="M4041.97 1849.4L2066.5 1849.4L1980.3 1998.71L1980.3 1999.4L1980.3 1999.4L4041.97 1999.4L4041.97 1849.4Z" fill="black"/>
<path d="M3757.38 1051.83L2214 1942.9L2139 1813L3682.38 921.929L3757.38 1051.83Z" fill="black"/>
</svg>
