<svg width="4042" height="3178" viewBox="0 0 4042 3178" fill="none" xmlns="http://www.w3.org/2000/svg">
<rect y="1" width="360" height="2000" fill="black"/>
<rect x="48" y="181" width="360" height="2100" transform="rotate(-30 48 181)" fill="black"/>
<rect x="1100" width="360" height="2000" fill="black"/>
<rect x="1540" width="360" height="2000" fill="black"/>
<rect width="360" height="2100" transform="matrix(-0.866025 -0.5 -0.5 0.866025 2949.77 180)" fill="black"/>
<path d="M3140.74 290.195L2153.01 2001H1980.6L1980 2000.65V2000.65L3010.83 215.196L3140.74 290.195Z" fill="black"/>
<path d="M4041.97 1849.4L2066.5 1849.4L1980.3 1998.71L1980.3 1999.4L1980.3 1999.4L4041.97 1999.4L4041.97 1849.4Z" fill="black"/>
<path d="M3757.38 1051.83L2214 1942.9L2139 1813L3682.38 921.929L3757.38 1051.83Z" fill="black"/>
<path d="M292.9 2764V3155H9V2186H296.3L553 2577C591.533 2634.8 621 2683.53 641.4 2723.2H646.5V2560V2186H928.7V3155H639.7L376.2 2747L299.7 2631.4H294.6L292.9 2764ZM1569 3177.1C1400.14 3177.1 1273.2 3137.43 1188.2 3058.1C1104.34 2977.63 1062.4 2849 1062.4 2672.2C1062.4 2498.8 1108.87 2372.43 1201.8 2293.1C1294.74 2213.77 1417.7 2174.1 1570.7 2174.1C1892.57 2174.1 2053.5 2334.47 2053.5 2655.2C2053.5 2817.27 2013.84 2944.77 1934.5 3037.7C1856.3 3130.63 1734.47 3177.1 1569 3177.1ZM1562.2 2976.5C1593.94 2976.5 1620.57 2971.4 1642.1 2961.2C1663.64 2949.87 1680.64 2930.6 1693.1 2903.4C1716.9 2856.93 1728.8 2781 1728.8 2675.6C1728.8 2572.47 1716.9 2497.67 1693.1 2451.2C1669.3 2403.6 1625.67 2378.67 1562.2 2376.4C1538.4 2376.4 1513.47 2379.23 1487.4 2384.9C1462.47 2389.43 1446.6 2396.23 1439.8 2405.3C1426.2 2421.17 1415.44 2455.17 1407.5 2507.3C1400.7 2558.3 1397.3 2614.4 1397.3 2675.6C1397.3 2770.8 1406.37 2840.5 1424.5 2884.7C1436.97 2917.57 1454.54 2941.37 1477.2 2956.1C1499.87 2969.7 1528.2 2976.5 1562.2 2976.5ZM2749.79 2186H3072.79L2810.99 3155H2367.29L2103.79 2186H2428.49L2584.89 2944.2H2593.39L2749.79 2186ZM3671.17 2942.5H3388.97L3337.97 3155H3025.17L3337.97 2186H3737.47L4036.67 3155H3722.17L3671.17 2942.5ZM3528.37 2395.1L3428.07 2753.8H3630.37L3535.17 2395.1H3528.37Z" fill="black"/>
</svg>
